<svg xmlns="http://www.w3.org/2000/svg" viewBox="0 0 512 512" width="512" height="512">
  <defs>
    <!-- Wood grain with tech feel - lighter, cleaner -->
    <pattern id="tw" x="0" y="0" width="100" height="100" patternUnits="userSpaceOnUse">
      <rect width="100" height="100" fill="#C89050"/>
      <path d="M0,6 Q50,4 100,8" stroke="#B88040" stroke-width="1.2" fill="none" opacity="0.4"/>
      <path d="M0,18 Q50,16 100,20" stroke="#A87035" stroke-width="0.8" fill="none" opacity="0.3"/>
      <path d="M0,30 Q50,28 100,32" stroke="#B88040" stroke-width="1.5" fill="none" opacity="0.35"/>
      <path d="M0,44 Q50,42 100,46" stroke="#A87035" stroke-width="1" fill="none" opacity="0.25"/>
      <path d="M0,58 Q50,56 100,60" stroke="#B88040" stroke-width="1.2" fill="none" opacity="0.4"/>
      <path d="M0,72 Q50,70 100,74" stroke="#A87035" stroke-width="0.8" fill="none" opacity="0.3"/>
      <path d="M0,86 Q50,84 100,88" stroke="#B88040" stroke-width="1.5" fill="none" opacity="0.35"/>
    </pattern>
    
    <!-- Circuit trace pattern -->
    <pattern id="circuit" x="0" y="0" width="60" height="60" patternUnits="userSpaceOnUse">
      <rect width="60" height="60" fill="none"/>
      <path d="M0,30 L15,30 L20,20 L25,30 L40,30" stroke="#B8895A" stroke-width="0.5" fill="none" opacity="0.15"/>
      <circle cx="15" cy="30" r="1.5" fill="#B8895A" opacity="0.2"/>
      <circle cx="40" cy="30" r="1.5" fill="#B8895A" opacity="0.2"/>
      <path d="M30,0 L30,15 L20,20" stroke="#B8895A" stroke-width="0.5" fill="none" opacity="0.12"/>
      <circle cx="30" cy="15" r="1" fill="#B8895A" opacity="0.15"/>
    </pattern>

    <radialGradient id="ng" cx="40%" cy="35%" r="55%">
      <stop offset="0%" stop-color="#E8E8E8"/>
      <stop offset="30%" stop-color="#C0C0C0"/>
      <stop offset="70%" stop-color="#808080"/>
      <stop offset="100%" stop-color="#505050"/>
    </radialGradient>
    
    <linearGradient id="edgeGlow" x1="0%" y1="0%" x2="100%" y2="100%">
      <stop offset="0%" stop-color="#D4A76A" stop-opacity="0.8"/>
      <stop offset="50%" stop-color="#B8895A" stop-opacity="0.3"/>
      <stop offset="100%" stop-color="#D4A76A" stop-opacity="0.8"/>
    </linearGradient>
    
    <filter id="mainShadow" x="-15%" y="-10%" width="135%" height="130%">
      <feDropShadow dx="4" dy="6" stdDeviation="8" flood-color="rgba(0,0,0,0.25)"/>
    </filter>
    
    <filter id="glowEdge" x="-5%" y="-5%" width="110%" height="110%">
      <feGaussianBlur in="SourceGraphic" stdDeviation="2" result="blur"/>
      <feMerge>
        <feMergeNode in="blur"/>
        <feMergeNode in="SourceGraphic"/>
      </feMerge>
    </filter>
    
    <filter id="nf" x="-30%" y="-30%" width="160%" height="160%">
      <feDropShadow dx="1" dy="2" stdDeviation="2" flood-color="rgba(0,0,0,0.45)"/>
    </filter>
    
    <!-- Clip for clean plank edges -->
    <clipPath id="leftClip">
      <polygon points="100,20 165,20 245,460 180,460"/>
    </clipPath>
    <clipPath id="rightClip">
      <polygon points="347,20 412,20 332,460 267,460"/>
    </clipPath>
  </defs>
  
  <!-- Background -->
  <rect width="512" height="512" fill="#FAFAFA"/>
  
  <!-- Subtle circuit board background pattern -->
  <rect width="512" height="512" fill="url(#circuit)" opacity="0.5"/>
  
  <!-- ===== LEFT PLANK ===== -->
  <g filter="url(#mainShadow)">
    <!-- Plank body -->
    <polygon points="100,20 165,20 245,460 180,460" fill="url(#tw)" stroke="#8A6530" stroke-width="2.5" stroke-linejoin="round"/>
    <!-- Beveled top highlight -->
    <line x1="103" y1="23" x2="162" y2="23" stroke="rgba(255,255,255,0.3)" stroke-width="2"/>
    <!-- Left edge light -->
    <line x1="102" y1="23" x2="182" y2="457" stroke="rgba(255,255,255,0.15)" stroke-width="1.5"/>
    <!-- Right edge depth -->
    <line x1="163" y1="23" x2="243" y2="457" stroke="rgba(0,0,0,0.15)" stroke-width="1.5"/>
    <!-- Sharp chamfer lines (tech feel) -->
    <line x1="106" y1="28" x2="186" y2="452" stroke="rgba(255,220,160,0.12)" stroke-width="0.5"/>
    <line x1="158" y1="28" x2="238" y2="452" stroke="rgba(0,0,0,0.08)" stroke-width="0.5"/>
  </g>
  
  <!-- ===== RIGHT PLANK ===== -->
  <g filter="url(#mainShadow)">
    <polygon points="347,20 412,20 332,460 267,460" fill="url(#tw)" stroke="#8A6530" stroke-width="2.5" stroke-linejoin="round"/>
    <line x1="350" y1="23" x2="409" y2="23" stroke="rgba(255,255,255,0.3)" stroke-width="2"/>
    <line x1="349" y1="23" x2="269" y2="457" stroke="rgba(0,0,0,0.15)" stroke-width="1.5"/>
    <line x1="410" y1="23" x2="330" y2="457" stroke="rgba(255,255,255,0.15)" stroke-width="1.5"/>
    <line x1="354" y1="28" x2="274" y2="452" stroke="rgba(0,0,0,0.08)" stroke-width="0.5"/>
    <line x1="405" y1="28" x2="325" y2="452" stroke="rgba(255,220,160,0.12)" stroke-width="0.5"/>
  </g>
  
  <!-- ===== TECH ACCENTS - glowing edge lines ===== -->
  <g filter="url(#glowEdge)" opacity="0.6">
    <!-- Left plank inner edge glow -->
    <line x1="163" y1="20" x2="243" y2="460" stroke="#D4A76A" stroke-width="1" opacity="0.4"/>
    <!-- Right plank inner edge glow -->  
    <line x1="349" y1="20" x2="269" y2="460" stroke="#D4A76A" stroke-width="1" opacity="0.4"/>
  </g>
  
  <!-- ===== MAIN NAIL - Phillips head, sharp detail ===== -->
  <g filter="url(#nf)">
    <!-- Washer ring -->
    <circle cx="256" cy="420" r="20" fill="none" stroke="#606060" stroke-width="1.5" opacity="0.3"/>
    <!-- Nail head -->
    <circle cx="256" cy="420" r="16" fill="url(#ng)" stroke="#4A4A4A" stroke-width="2"/>
    <!-- Outer ring detail -->
    <circle cx="256" cy="420" r="14" fill="none" stroke="rgba(255,255,255,0.1)" stroke-width="0.5"/>
    <!-- Phillips cross - sharp -->
    <line x1="245" y1="420" x2="267" y2="420" stroke="#404040" stroke-width="2.5" stroke-linecap="round"/>
    <line x1="256" y1="409" x2="256" y2="431" stroke="#404040" stroke-width="2.5" stroke-linecap="round"/>
    <!-- Inner cross shadow -->
    <line x1="247" y1="421" x2="265" y2="421" stroke="#333" stroke-width="1" opacity="0.3"/>
    <line x1="257" y1="411" x2="257" y2="429" stroke="#333" stroke-width="1" opacity="0.3"/>
    <!-- Highlight -->
    <ellipse cx="251" cy="414" rx="5" ry="4" fill="white" opacity="0.25"/>
    <!-- Small glint -->
    <circle cx="248" cy="412" r="1.5" fill="white" opacity="0.4"/>
  </g>
  
  <!-- ===== TOP NAILS - smaller, precise ===== -->
  <g filter="url(#nf)">
    <circle cx="132" cy="65" r="9" fill="url(#ng)" stroke="#4A4A4A" stroke-width="1.5"/>
    <line x1="126" y1="65" x2="138" y2="65" stroke="#404040" stroke-width="1.8" stroke-linecap="round"/>
    <line x1="132" y1="59" x2="132" y2="71" stroke="#404040" stroke-width="1.8" stroke-linecap="round"/>
    <circle cx="130" cy="62" r="1" fill="white" opacity="0.35"/>
  </g>
  
  <g filter="url(#nf)">
    <circle cx="380" cy="65" r="9" fill="url(#ng)" stroke="#4A4A4A" stroke-width="1.5"/>
    <line x1="374" y1="65" x2="386" y2="65" stroke="#404040" stroke-width="1.8" stroke-linecap="round"/>
    <line x1="380" y1="59" x2="380" y2="71" stroke="#404040" stroke-width="1.8" stroke-linecap="round"/>
    <circle cx="378" cy="62" r="1" fill="white" opacity="0.35"/>
  </g>
  
  <!-- ===== TECH DOTS - circuit node accents ===== -->
  <circle cx="120" cy="180" r="2" fill="#B8895A" opacity="0.4"/>
  <circle cx="115" cy="180" r="0.8" fill="#B8895A" opacity="0.25"/>
  <line x1="108" y1="180" x2="115" y2="180" stroke="#B8895A" stroke-width="0.5" opacity="0.2"/>
  
  <circle cx="392" cy="180" r="2" fill="#B8895A" opacity="0.4"/>
  <circle cx="397" cy="180" r="0.8" fill="#B8895A" opacity="0.25"/>
  <line x1="397" y1="180" x2="404" y2="180" stroke="#B8895A" stroke-width="0.5" opacity="0.2"/>
  
  <circle cx="195" cy="350" r="2" fill="#B8895A" opacity="0.35"/>
  <line x1="188" y1="350" x2="195" y2="350" stroke="#B8895A" stroke-width="0.5" opacity="0.2"/>
  
  <circle cx="317" cy="350" r="2" fill="#B8895A" opacity="0.35"/>
  <line x1="317" y1="350" x2="324" y2="350" stroke="#B8895A" stroke-width="0.5" opacity="0.2"/>
  
  <!-- Corner circuit traces -->
  <path d="M30,480 L50,480 L55,470 L70,470" stroke="#B8895A" stroke-width="0.8" fill="none" opacity="0.15"/>
  <circle cx="50" cy="480" r="1.5" fill="#B8895A" opacity="0.2"/>
  <circle cx="70" cy="470" r="1.5" fill="#B8895A" opacity="0.2"/>
  
  <path d="M482,480 L462,480 L457,470 L442,470" stroke="#B8895A" stroke-width="0.8" fill="none" opacity="0.15"/>
  <circle cx="462" cy="480" r="1.5" fill="#B8895A" opacity="0.2"/>
  <circle cx="442" cy="470" r="1.5" fill="#B8895A" opacity="0.2"/>
  
  <path d="M30,30 L50,30 L55,40 L70,40" stroke="#B8895A" stroke-width="0.8" fill="none" opacity="0.15"/>
  <circle cx="50" cy="30" r="1.5" fill="#B8895A" opacity="0.2"/>
  
  <path d="M482,30 L462,30 L457,40 L442,40" stroke="#B8895A" stroke-width="0.8" fill="none" opacity="0.15"/>
  <circle cx="462" cy="30" r="1.5" fill="#B8895A" opacity="0.2"/>
</svg>