<svg xmlns="http://www.w3.org/2000/svg" viewBox="0 0 512 512" width="512" height="512">
  <defs>
    <pattern id="wg2" x="0" y="0" width="200" height="200" patternUnits="userSpaceOnUse">
      <rect width="200" height="200" fill="#C4944E"/>
      <line x1="0" y1="8" x2="200" y2="10" stroke="#B8854A" stroke-width="1.5" opacity="0.5"/>
      <line x1="0" y1="22" x2="200" y2="24" stroke="#A87840" stroke-width="1" opacity="0.4"/>
      <line x1="0" y1="38" x2="200" y2="36" stroke="#B8854A" stroke-width="2" opacity="0.3"/>
      <line x1="0" y1="52" x2="200" y2="54" stroke="#A87840" stroke-width="1" opacity="0.5"/>
      <line x1="0" y1="68" x2="200" y2="66" stroke="#B8854A" stroke-width="1.5" opacity="0.35"/>
      <line x1="0" y1="82" x2="200" y2="84" stroke="#A87840" stroke-width="1" opacity="0.45"/>
      <line x1="0" y1="98" x2="200" y2="96" stroke="#B8854A" stroke-width="2" opacity="0.3"/>
      <line x1="0" y1="112" x2="200" y2="114" stroke="#A87840" stroke-width="1" opacity="0.5"/>
      <line x1="0" y1="128" x2="200" y2="126" stroke="#B8854A" stroke-width="1.5" opacity="0.4"/>
      <line x1="0" y1="142" x2="200" y2="144" stroke="#A87840" stroke-width="1" opacity="0.35"/>
      <line x1="0" y1="158" x2="200" y2="156" stroke="#B8854A" stroke-width="2" opacity="0.45"/>
      <line x1="0" y1="175" x2="200" y2="177" stroke="#A87840" stroke-width="1" opacity="0.3"/>
      <line x1="0" y1="190" x2="200" y2="192" stroke="#B8854A" stroke-width="1" opacity="0.4"/>
      <ellipse cx="75" cy="90" rx="6" ry="4" fill="#9A7038" opacity="0.35"/>
      <ellipse cx="155" cy="160" rx="5" ry="3" fill="#9A7038" opacity="0.25"/>
    </pattern>
    <pattern id="wd2" x="0" y="0" width="200" height="200" patternUnits="userSpaceOnUse">
      <rect width="200" height="200" fill="#A07040"/>
      <line x1="0" y1="10" x2="200" y2="12" stroke="#906030" stroke-width="1.5" opacity="0.5"/>
      <line x1="0" y1="30" x2="200" y2="28" stroke="#805528" stroke-width="1" opacity="0.4"/>
      <line x1="0" y1="50" x2="200" y2="52" stroke="#906030" stroke-width="2" opacity="0.3"/>
      <line x1="0" y1="70" x2="200" y2="68" stroke="#805528" stroke-width="1" opacity="0.5"/>
    </pattern>
    <radialGradient id="nh2" cx="50%" cy="35%" r="50%">
      <stop offset="0%" stop-color="#E0E0E0"/>
      <stop offset="30%" stop-color="#B0B0B0"/>
      <stop offset="70%" stop-color="#888"/>
      <stop offset="100%" stop-color="#666"/>
    </radialGradient>
    <filter id="ds2" x="-10%" y="-10%" width="130%" height="130%">
      <feDropShadow dx="4" dy="4" stdDeviation="6" flood-color="#00000040"/>
    </filter>
    <filter id="ns2" x="-30%" y="-30%" width="160%" height="160%">
      <feDropShadow dx="1" dy="2" stdDeviation="2" flood-color="#00000060"/>
    </filter>
  </defs>
  
  <rect width="512" height="512" fill="#FAFAFA"/>
  
  <!-- Left plank -->
  <g filter="url(#ds2)">
    <rect x="108" y="60" width="60" height="340" rx="4" ry="4" fill="url(#wd2)" transform="rotate(-16, 168, 230)"/>
    <rect x="105" y="58" width="60" height="340" rx="4" ry="4" fill="url(#wg2)" transform="rotate(-16, 165, 228)" stroke="#8C6E3A" stroke-width="1.5"/>
    <rect x="105" y="58" width="60" height="10" rx="4" ry="4" fill="#B08040" transform="rotate(-16, 165, 63)" opacity="0.5"/>
  </g>
  
  <!-- Right plank -->
  <g filter="url(#ds2)">
    <rect x="344" y="60" width="60" height="340" rx="4" ry="4" fill="url(#wd2)" transform="rotate(16, 344, 230)"/>
    <rect x="347" y="58" width="60" height="340" rx="4" ry="4" fill="url(#wg2)" transform="rotate(16, 347, 228)" stroke="#8C6E3A" stroke-width="1.5"/>
    <rect x="347" y="58" width="60" height="10" rx="4" ry="4" fill="#B08040" transform="rotate(16, 347, 63)" opacity="0.5"/>
  </g>
  
  <!-- Cross brace -->
  <g filter="url(#ds2)">
    <rect x="190" y="340" width="132" height="35" rx="3" ry="3" fill="url(#wd2)"/>
    <rect x="188" y="338" width="132" height="35" rx="3" ry="3" fill="url(#wg2)" stroke="#8C6E3A" stroke-width="1"/>
  </g>
  
  <!-- Nail 1 - top left plank -->
  <g filter="url(#ns2)" transform="rotate(-16, 135, 110)">
    <circle cx="135" cy="110" r="9" fill="url(#nh2)" stroke="#555" stroke-width="1.2"/>
    <line x1="135" y1="106" x2="135" y2="114" stroke="#999" stroke-width="1.2" stroke-linecap="round"/>
    <line x1="131" y1="110" x2="139" y2="110" stroke="#999" stroke-width="1.2" stroke-linecap="round"/>
  </g>
  
  <!-- Nail 2 - top right plank -->
  <g filter="url(#ns2)" transform="rotate(16, 377, 110)">
    <circle cx="377" cy="110" r="9" fill="url(#nh2)" stroke="#555" stroke-width="1.2"/>
    <line x1="377" y1="106" x2="377" y2="114" stroke="#999" stroke-width="1.2" stroke-linecap="round"/>
    <line x1="373" y1="110" x2="381" y2="110" stroke="#999" stroke-width="1.2" stroke-linecap="round"/>
  </g>
  
  <!-- Nail 3 - mid left plank -->
  <g filter="url(#ns2)" transform="rotate(-16, 135, 220)">
    <circle cx="135" cy="220" r="7" fill="url(#nh2)" stroke="#555" stroke-width="1"/>
    <line x1="135" y1="217" x2="135" y2="223" stroke="#999" stroke-width="1" stroke-linecap="round"/>
    <line x1="132" y1="220" x2="138" y2="220" stroke="#999" stroke-width="1" stroke-linecap="round"/>
  </g>
  
  <!-- Nail 4 - mid right plank -->
  <g filter="url(#ns2)" transform="rotate(16, 377, 220)">
    <circle cx="377" cy="220" r="7" fill="url(#nh2)" stroke="#555" stroke-width="1"/>
    <line x1="377" y1="217" x2="377" y2="223" stroke="#999" stroke-width="1" stroke-linecap="round"/>
    <line x1="374" y1="220" x2="380" y2="220" stroke="#999" stroke-width="1" stroke-linecap="round"/>
  </g>
  
  <!-- Nail 5 - cross brace left -->
  <g filter="url(#ns2)">
    <circle cx="212" cy="356" r="10" fill="url(#nh2)" stroke="#555" stroke-width="1.3"/>
    <line x1="212" y1="351" x2="212" y2="361" stroke="#999" stroke-width="1.3" stroke-linecap="round"/>
    <line x1="207" y1="356" x2="217" y2="356" stroke="#999" stroke-width="1.3" stroke-linecap="round"/>
  </g>
  
  <!-- Nail 6 - cross brace right -->
  <g filter="url(#ns2)">
    <circle cx="300" cy="356" r="10" fill="url(#nh2)" stroke="#555" stroke-width="1.3"/>
    <line x1="300" y1="351" x2="300" y2="361" stroke="#999" stroke-width="1.3" stroke-linecap="round"/>
    <line x1="295" y1="356" x2="305" y2="356" stroke="#999" stroke-width="1.3" stroke-linecap="round"/>
  </g>
  
  <!-- VANTIX text -->
  <text x="256" y="468" text-anchor="middle" font-family="system-ui, -apple-system, sans-serif" font-size="42" font-weight="800" letter-spacing="8" fill="#2D2A26">VANTIX</text>
</svg>